<svg width="17" height="17" viewBox="0 0 17 17" fill="none" xmlns="http://www.w3.org/2000/svg">
<path d="M4.35851 13.4694C5.09184 13.4694 5.69184 12.8694 5.69184 12.1361V7.4694C5.69184 6.73607 5.09184 6.13607 4.35851 6.13607C3.62518 6.13607 3.02518 6.73607 3.02518 7.4694V12.1361C3.02518 12.8694 3.62518 13.4694 4.35851 13.4694ZM11.0252 10.1361V12.1361C11.0252 12.8694 11.6252 13.4694 12.3585 13.4694C13.0918 13.4694 13.6918 12.8694 13.6918 12.1361V10.1361C13.6918 9.40273 13.0918 8.80273 12.3585 8.80273C11.6252 8.80273 11.0252 9.40273 11.0252 10.1361ZM8.35851 13.4694C9.09184 13.4694 9.69184 12.8694 9.69184 12.1361V4.13607C9.69184 3.40273 9.09184 2.80273 8.35851 2.80273C7.62518 2.80273 7.02518 3.40273 7.02518 4.13607V12.1361C7.02518 12.8694 7.62518 13.4694 8.35851 13.4694Z" fill="white"/>
</svg>
