<svg width="16" height="14" viewBox="0 0 16 14" fill="none" xmlns="http://www.w3.org/2000/svg">
<path d="M7.90619 9.8152V13.1452M7.90619 9.8152L11.9022 13.1452M7.90619 9.8152L3.91021 13.1452M5.2422 3.82122V7.15121M7.90619 5.15321V7.15121M10.5702 6.48521V7.15121M14.5662 1.15723H1.24622M1.91221 1.15723H13.9002V6.61841C13.9002 7.73739 13.9002 8.29688 13.6824 8.72428C13.4909 9.10022 13.1852 9.40588 12.8093 9.59743C12.3819 9.8152 11.8224 9.8152 10.7034 9.8152H5.109C3.99002 9.8152 3.43053 9.8152 3.00314 9.59743C2.62719 9.40588 2.32154 9.10022 2.12998 8.72428C1.91221 8.29688 1.91221 7.73739 1.91221 6.61841V1.15723Z" stroke="black" stroke-width="1.37005" stroke-linecap="round" stroke-linejoin="round"/>
</svg>
