<svg width="10" height="13" viewBox="0 0 10 13" fill="none" xmlns="http://www.w3.org/2000/svg">
<path d="M1.69004 12.9688C1.36921 12.9688 1.09465 12.8546 0.866376 12.6263C0.638099 12.3981 0.523765 12.1233 0.523376 11.8021V5.96875C0.523376 5.64792 0.63771 5.37336 0.866376 5.14508C1.09504 4.91681 1.3696 4.80247 1.69004 4.80208H6.94004V3.63542C6.94004 3.14931 6.7699 2.73611 6.42963 2.39583C6.08935 2.05556 5.67615 1.88542 5.19004 1.88542C4.78171 1.88542 4.42432 2.00947 4.11788 2.25758C3.81143 2.50569 3.60493 2.81428 3.49838 3.18333C3.45949 3.31944 3.37918 3.42892 3.25746 3.51175C3.13574 3.59458 3.00215 3.63581 2.85671 3.63542C2.69143 3.63542 2.55299 3.58194 2.44138 3.475C2.32977 3.36806 2.28835 3.24167 2.31713 3.09583C2.42407 2.43472 2.74724 1.87317 3.28663 1.41117C3.82602 0.949167 4.46049 0.718362 5.19004 0.71875C5.99699 0.71875 6.68493 1.00322 7.25388 1.57217C7.82282 2.14111 8.1071 2.82886 8.10671 3.63542V4.80208H8.69004C9.01088 4.80208 9.28563 4.91642 9.51429 5.14508C9.74296 5.37375 9.8571 5.64831 9.85671 5.96875V11.8021C9.85671 12.1229 9.74257 12.3977 9.51429 12.6263C9.28602 12.855 9.01126 12.9691 8.69004 12.9688H1.69004ZM5.19004 10.0521C5.51088 10.0521 5.78563 9.93794 6.01429 9.70967C6.24296 9.48139 6.3571 9.20664 6.35671 8.88542C6.35632 8.56419 6.24218 8.28964 6.01429 8.06175C5.7864 7.83386 5.51165 7.71953 5.19004 7.71875C4.86843 7.71797 4.59388 7.83231 4.36638 8.06175C4.13888 8.29119 4.02454 8.56575 4.02338 8.88542C4.02221 9.20508 4.13654 9.47983 4.36638 9.70967C4.59621 9.9395 4.87077 10.0536 5.19004 10.0521Z" fill="white"/>
</svg>
